<?xml version="1.0" encoding="utf-8"?>
<!-- Generator: Adobe Illustrator 17.0.1, SVG Export Plug-In . SVG Version: 6.00 Build 0)  -->
<!DOCTYPE svg PUBLIC "-//W3C//DTD SVG 1.1//EN" "http://www.w3.org/Graphics/SVG/1.1/DTD/svg11.dtd">
<svg version="1.1" id="Layer_1" xmlns="http://www.w3.org/2000/svg" xmlns:xlink="http://www.w3.org/1999/xlink" x="0px" y="0px"
	 width="30px" height="30px" viewBox="0 0 30 30" enable-background="new 0 0 30 30" xml:space="preserve">
<path d="M8.196,30c-0.462,0-0.877-0.169-1.2-0.488C6.676,29.2,6.501,28.784,6.5,28.34c0-0.445,0.176-0.863,0.496-1.177l12.41-12.171
	L6.996,2.82C6.676,2.507,6.5,2.09,6.5,1.645S6.676,0.783,6.996,0.47C7.3,0.171,7.738,0,8.196,0c0.458,0,0.896,0.171,1.2,0.47
	l13.608,13.347c0.319,0.313,0.495,0.73,0.495,1.174c0,0.444-0.176,0.862-0.495,1.176L9.396,29.513C9.072,29.831,8.657,30,8.196,30z"
	/>
</svg>
