<?xml version="1.0" encoding="utf-8"?>
<!-- Generator: Adobe Illustrator 17.0.1, SVG Export Plug-In . SVG Version: 6.00 Build 0)  -->
<!DOCTYPE svg PUBLIC "-//W3C//DTD SVG 1.1//EN" "http://www.w3.org/Graphics/SVG/1.1/DTD/svg11.dtd">
<svg version="1.1" id="Layer_1" xmlns="http://www.w3.org/2000/svg" xmlns:xlink="http://www.w3.org/1999/xlink" x="0px" y="0px"
	 width="30px" height="30px" viewBox="0 0 30 30" enable-background="new 0 0 30 30" xml:space="preserve">
<path d="M15,0C6.729,0,0,6.729,0,15c0,8.27,6.729,15,15,15c8.27,0,15-6.73,15-15C30,6.729,23.272,0,15,0z M7.683,9H15h7.318
	c0.659,0,0.777,0.319,0.257,0.709L16.092,14.6c-0.294,0.222-0.699,0.32-1.092,0.302c-0.394,0.018-0.799-0.08-1.093-0.302
	L7.423,9.709C6.905,9.319,7.023,9,7.683,9z M24,19.857C24,20.486,23.46,21,22.8,21H15H7.2C6.54,21,6,20.486,6,19.857v-8.056
	c0-0.628,0.43-0.832,0.956-0.452l7.086,5.123c0.265,0.189,0.612,0.282,0.958,0.278c0.346,0.004,0.693-0.088,0.958-0.278l7.085-5.123
	C23.57,10.97,24,11.173,24,11.802V19.857z"/>
</svg>
