<?xml version="1.0" encoding="utf-8"?>
<!-- Generator: Adobe Illustrator 17.0.1, SVG Export Plug-In . SVG Version: 6.00 Build 0)  -->
<!DOCTYPE svg PUBLIC "-//W3C//DTD SVG 1.1//EN" "http://www.w3.org/Graphics/SVG/1.1/DTD/svg11.dtd">
<svg version="1.1" id="Layer_1" xmlns="http://www.w3.org/2000/svg" xmlns:xlink="http://www.w3.org/1999/xlink" x="0px" y="0px"
	 width="30px" height="30px" viewBox="0 0 30 30" enable-background="new 0 0 30 30" xml:space="preserve">
<path d="M15,0C6.729,0,0,6.729,0,15c0,8.27,6.729,15,15,15c8.27,0,15-6.73,15-15C30,6.729,23.272,0,15,0z M18.73,15.528h-2.44
	c0,3.899,0,8.698,0,8.698h-3.616c0,0,0-4.753,0-8.698h-1.719v-3.074h1.719v-1.988c0-1.424,0.677-3.649,3.649-3.649l2.68,0.01V9.81
	c0,0-1.628,0-1.945,0c-0.317,0-0.767,0.158-0.767,0.837v1.807h2.755L18.73,15.528z"/>
</svg>
