<?xml version="1.0" encoding="utf-8"?>
<!-- Generator: Adobe Illustrator 17.0.1, SVG Export Plug-In . SVG Version: 6.00 Build 0)  -->
<!DOCTYPE svg PUBLIC "-//W3C//DTD SVG 1.1//EN" "http://www.w3.org/Graphics/SVG/1.1/DTD/svg11.dtd">
<svg version="1.1" id="Layer_1" xmlns="http://www.w3.org/2000/svg" xmlns:xlink="http://www.w3.org/1999/xlink" x="0px" y="0px"
	 width="30px" height="30px" viewBox="0 0 30 30" enable-background="new 0 0 30 30" xml:space="preserve">
<path d="M15,17.824c1.556,0,2.824-1.267,2.824-2.823c0-0.627-0.483-2.825-2.824-2.825s-2.825,2.197-2.824,2.825
	C12.176,16.556,13.443,17.824,15,17.824z"/>
<polygon points="21.574,11.248 21.574,8.447 21.204,8.448 18.743,8.456 18.752,11.258 "/>
<path d="M21.588,13.121h-2.316c0.217,0.535,0.339,1.267,0.339,1.88c0,2.544-2.069,4.615-4.614,4.615s-4.615-2.071-4.615-4.615
	c0-0.613,0.123-1.344,0.34-1.88H8.378v6.852c0,0.893,0.726,1.617,1.618,1.617h9.975c0.893,0,1.618-0.726,1.618-1.617h-0.002
	L21.588,13.121L21.588,13.121z"/>
<path d="M15,0C6.715,0,0,6.716,0,15s6.716,15,15,15s15-6.716,15-15S23.284,0,15,0z M23.439,20.178c0,1.798-1.463,3.262-3.262,3.262
	H9.822c-1.798,0-3.262-1.463-3.262-3.262V9.822c0-1.798,1.463-3.262,3.262-3.262h10.355c1.799,0,3.263,1.463,3.263,3.262
	L23.439,20.178L23.439,20.178z"/>
</svg>
