<?xml version="1.0" encoding="utf-8"?>
<!-- Generator: Adobe Illustrator 17.0.1, SVG Export Plug-In . SVG Version: 6.00 Build 0)  -->
<!DOCTYPE svg PUBLIC "-//W3C//DTD SVG 1.1//EN" "http://www.w3.org/Graphics/SVG/1.1/DTD/svg11.dtd">
<svg version="1.1" id="Layer_1" xmlns="http://www.w3.org/2000/svg" xmlns:xlink="http://www.w3.org/1999/xlink" x="0px" y="0px"
	 width="30px" height="30px" viewBox="0 0 30 30" enable-background="new 0 0 30 30" xml:space="preserve">
<path fill="#010101" d="M15.014,12.432c1.432-0.005,2.573-1.156,2.568-2.591c-0.005-1.436-1.148-2.579-2.581-2.58
	c-1.445-0.002-2.599,1.162-2.588,2.611C12.424,11.302,13.577,12.437,15.014,12.432z"/>
<path fill="#010101" d="M15,0C6.716,0,0,6.716,0,15s6.716,15,15,15s15-6.716,15-15S23.284,0,15,0z M15.022,4.562
	c2.922,0.008,5.267,2.398,5.252,5.352c-0.015,2.886-2.398,5.225-5.315,5.215c-2.887-0.01-5.255-2.403-5.238-5.295
	C9.737,6.91,12.106,4.554,15.022,4.562z M20.939,17.204c-0.646,0.663-1.424,1.143-2.287,1.478c-0.816,0.316-1.711,0.476-2.597,0.582
	c0.134,0.145,0.197,0.217,0.281,0.3c1.202,1.208,2.41,2.41,3.607,3.622c0.408,0.413,0.493,0.925,0.269,1.405
	c-0.245,0.525-0.796,0.87-1.335,0.833c-0.342-0.024-0.609-0.193-0.845-0.432c-0.907-0.913-1.832-1.809-2.72-2.739
	c-0.259-0.271-0.383-0.219-0.612,0.016c-0.912,0.94-1.84,1.864-2.773,2.784c-0.419,0.413-0.917,0.488-1.403,0.252
	c-0.517-0.25-0.845-0.777-0.82-1.308c0.018-0.358,0.194-0.632,0.44-0.877c1.19-1.187,2.376-2.378,3.563-3.569
	c0.079-0.079,0.152-0.163,0.266-0.285c-1.618-0.169-3.078-0.568-4.327-1.544C9.49,17.6,9.33,17.483,9.189,17.346
	c-0.547-0.525-0.602-1.127-0.17-1.746c0.37-0.53,0.992-0.672,1.638-0.367c0.125,0.059,0.244,0.133,0.358,0.211
	c2.328,1.6,5.527,1.644,7.864,0.071c0.231-0.177,0.479-0.322,0.766-0.396c0.557-0.144,1.078,0.062,1.377,0.55
	C21.365,16.227,21.361,16.771,20.939,17.204z"/>
</svg>
