<?xml version="1.0" encoding="utf-8"?>
<!-- Generator: Adobe Illustrator 17.0.1, SVG Export Plug-In . SVG Version: 6.00 Build 0)  -->
<!DOCTYPE svg PUBLIC "-//W3C//DTD SVG 1.1//EN" "http://www.w3.org/Graphics/SVG/1.1/DTD/svg11.dtd">
<svg version="1.1" id="Layer_1" xmlns="http://www.w3.org/2000/svg" xmlns:xlink="http://www.w3.org/1999/xlink" x="0px" y="0px"
	 width="30px" height="30px" viewBox="0 0 30 30" enable-background="new 0 0 30 30" xml:space="preserve">
<path fill="#010101" d="M29.327,23.729l-4.633-4.644c-0.923-0.921-2.451-0.893-3.406,0.064l-2.334,2.339
	c-0.147-0.081-0.3-0.167-0.461-0.257c-1.474-0.819-3.491-1.941-5.614-4.07c-2.129-2.134-3.25-4.159-4.069-5.637
	c-0.086-0.157-0.169-0.308-0.251-0.451l1.567-1.568l0.77-0.773c0.956-0.959,0.983-2.49,0.062-3.414L6.325,0.674
	c-0.921-0.923-2.45-0.895-3.406,0.064L1.614,2.054L1.649,2.09C1.211,2.65,0.846,3.296,0.573,3.992
	C0.322,4.655,0.166,5.287,0.095,5.921C-0.517,11.004,1.8,15.65,8.09,21.954c8.694,8.713,15.701,8.055,16.003,8.023
	c0.658-0.079,1.289-0.237,1.93-0.486c0.689-0.27,1.333-0.636,1.891-1.074l0.029,0.025l1.323-1.298
	C30.22,26.186,30.248,24.654,29.327,23.729z"/>
</svg>
