<?xml version="1.0" encoding="utf-8"?>
<!-- Generator: Adobe Illustrator 17.0.1, SVG Export Plug-In . SVG Version: 6.00 Build 0)  -->
<!DOCTYPE svg PUBLIC "-//W3C//DTD SVG 1.1//EN" "http://www.w3.org/Graphics/SVG/1.1/DTD/svg11.dtd">
<svg version="1.1" id="Layer_1" xmlns="http://www.w3.org/2000/svg" xmlns:xlink="http://www.w3.org/1999/xlink" x="0px" y="0px"
	 width="30px" height="30px" viewBox="0 0 30 30" enable-background="new 0 0 30 30" xml:space="preserve">
<path d="M29.544,27.327l-6.615-6.643c-0.198-0.198-0.438-0.308-0.69-0.376c1.691-2.138,2.707-4.838,2.707-7.778
	C24.946,5.61,19.362,0,12.471,0C5.584,0,0,5.61,0,12.528c0,6.921,5.584,12.528,12.471,12.528c2.991,0,5.732-1.059,7.881-2.82
	c0.072,0.24,0.182,0.47,0.372,0.661l6.615,6.645c0.61,0.612,1.597,0.612,2.205,0C30.152,28.93,30.152,27.939,29.544,27.327z
	 M12.379,22.501c-5.592,0-10.128-4.533-10.128-10.126S6.787,2.25,12.379,2.25c5.594,0,10.13,4.533,10.13,10.126
	C22.507,17.97,17.971,22.501,12.379,22.501z"/>
</svg>
