<?xml version="1.0" encoding="utf-8"?>
<!-- Generator: Adobe Illustrator 17.0.1, SVG Export Plug-In . SVG Version: 6.00 Build 0)  -->
<!DOCTYPE svg PUBLIC "-//W3C//DTD SVG 1.1//EN" "http://www.w3.org/Graphics/SVG/1.1/DTD/svg11.dtd">
<svg version="1.1" id="Layer_1" xmlns="http://www.w3.org/2000/svg" xmlns:xlink="http://www.w3.org/1999/xlink" x="0px" y="0px"
	 width="30px" height="30px" viewBox="0 0 30 30" enable-background="new 0 0 30 30" xml:space="preserve">
<path d="M15,0C6.716,0,0,6.716,0,15s6.716,15,15,15s15-6.716,15-15S23.284,0,15,0z M22.399,12.636
	c0.007,0.154,0.01,0.308,0.01,0.464c0,4.738-3.607,10.202-10.201,10.202c-2.025,0-3.91-0.593-5.496-1.611
	c0.28,0.033,0.566,0.05,0.855,0.05c1.68,0,3.226-0.573,4.453-1.535c-1.569-0.029-2.893-1.066-3.349-2.49
	c0.219,0.042,0.443,0.064,0.675,0.064c0.326,0,0.644-0.044,0.944-0.126c-1.64-0.329-2.876-1.778-2.876-3.515c0-0.015,0-0.03,0-0.045
	c0.483,0.269,1.036,0.43,1.624,0.449c-0.962-0.643-1.595-1.741-1.595-2.984c0-0.657,0.177-1.273,0.486-1.803
	c1.768,2.17,4.411,3.597,7.39,3.747c-0.061-0.263-0.093-0.536-0.093-0.817c0-1.98,1.606-3.585,3.585-3.585
	c1.032,0,1.964,0.435,2.618,1.132c0.816-0.161,1.584-0.459,2.277-0.87c-0.268,0.838-0.836,1.54-1.577,1.983
	c0.725-0.086,1.417-0.279,2.059-0.564C23.707,11.499,23.1,12.13,22.399,12.636z"/>
</svg>
