<?xml version="1.0" encoding="utf-8"?>
<!-- Generator: Adobe Illustrator 17.0.1, SVG Export Plug-In . SVG Version: 6.00 Build 0)  -->
<!DOCTYPE svg PUBLIC "-//W3C//DTD SVG 1.1//EN" "http://www.w3.org/Graphics/SVG/1.1/DTD/svg11.dtd">
<svg version="1.1" id="Layer_1" xmlns="http://www.w3.org/2000/svg" xmlns:xlink="http://www.w3.org/1999/xlink" x="0px" y="0px"
	 width="30px" height="30px" viewBox="0 0 30 30" enable-background="new 0 0 30 30" xml:space="preserve">
<path d="M15,0C6.716,0,0,6.716,0,15s6.716,15,15,15s15-6.716,15-15S23.284,0,15,0z M23.594,21.579l-2.63,0.037
	c0,0-0.565,0.112-1.309-0.399c-0.984-0.675-1.912-2.431-2.635-2.202c-0.733,0.233-0.71,1.812-0.71,1.812s0.005,0.337-0.162,0.517
	c-0.182,0.196-0.537,0.235-0.537,0.235h-1.177c0,0-2.598,0.156-4.885-2.225c-2.495-2.598-4.698-7.752-4.698-7.752
	S4.723,11.263,4.861,11.1c0.155-0.184,0.578-0.195,0.578-0.195l2.814-0.018c0,0,0.265,0.044,0.455,0.184
	c0.156,0.115,0.244,0.33,0.244,0.33s0.455,1.15,1.057,2.191c1.176,2.032,1.723,2.476,2.123,2.258
	c0.582-0.317,0.407-2.872,0.407-2.872s0.011-0.927-0.293-1.34c-0.235-0.32-0.678-0.413-0.874-0.44
	c-0.158-0.021,0.102-0.389,0.439-0.554c0.506-0.248,1.401-0.262,2.458-0.251c0.823,0.008,1.06,0.06,1.382,0.137
	c0.97,0.234,0.641,1.139,0.641,3.309c0,0.695-0.125,1.673,0.376,1.997c0.215,0.139,0.743,0.021,2.062-2.219
	c0.625-1.061,1.094-2.309,1.094-2.309s0.102-0.223,0.262-0.318c0.163-0.097,0.382-0.067,0.382-0.067l2.962-0.018
	c0,0,0.89-0.106,1.034,0.295c0.151,0.422-0.333,1.406-1.543,3.019c-1.987,2.648-2.208,2.4-0.558,3.931
	c1.576,1.463,1.902,2.174,1.956,2.263C24.97,21.494,23.594,21.579,23.594,21.579z"/>
</svg>
