<?xml version="1.0" encoding="utf-8"?>
<!DOCTYPE svg PUBLIC "-//W3C//DTD SVG 1.1//EN" "http://www.w3.org/Graphics/SVG/1.1/DTD/svg11.dtd">
<svg version="1.1" id="Layer_1" xmlns="http://www.w3.org/2000/svg" xmlns:xlink="http://www.w3.org/1999/xlink" x="0px" y="0px"
	 width="30px" height="30px" viewBox="0 0 30 30" enable-background="new 0 0 30 30" xml:space="preserve">
<path fill="#FFFFFF" d="M21.803,0c0.462,0,0.877,0.169,1.2,0.488c0.32,0.312,0.495,0.728,0.496,1.172
	c0,0.445-0.176,0.863-0.496,1.177l-12.41,12.171l12.41,12.172c0.32,0.313,0.496,0.73,0.496,1.175s-0.176,0.862-0.496,1.175
	c-0.304,0.299-0.742,0.47-1.2,0.47s-0.896-0.171-1.2-0.47L6.995,16.183C6.676,15.87,6.5,15.453,6.5,15.009s0.176-0.862,0.495-1.176
	L20.603,0.487C20.927,0.169,21.342,0,21.803,0z"/>
</svg>
