<?xml version="1.0" encoding="utf-8"?>
<svg xmlns="http://www.w3.org/2000/svg" xmlns:xlink="http://www.w3.org/1999/xlink">
	<symbol width="120px" height="120px" viewBox="0 0 120 120" id="logo">
	<g>
		<ellipse fill="#7E5D63" cx="59.974" cy="62.951" rx="59.923" ry="57.049"/>
	</g>
	<g>
		<path fill="#FFCE04" d="M70.919,83.443l-9.422-13.77c-0.353-0.515-0.919-0.82-1.523-0.82c-0.002,0-0.004,0-0.005,0
			c-0.604,0.002-1.171,0.309-1.523,0.828l-9.32,13.77c-0.417,0.617-0.461,1.433-0.11,2.094l9.371,17.705
			c0.329,0.624,0.957,1.012,1.638,1.012c0.681,0,1.309-0.388,1.638-1.012l9.371-17.705C71.388,84.88,71.342,84.062,70.919,83.443z"
			/>
	</g>
	<g>
		<path fill="#F7911E" d="M58.446,69.681l-9.32,13.77c-0.417,0.617-0.461,1.433-0.11,2.094l9.371,17.705
			c0.321,0.608,0.926,0.986,1.587,1.005V68.852c-0.002,0-0.004,0-0.005,0C59.365,68.854,58.797,69.162,58.446,69.681z"/>
	</g>
	<g>
		<path fill="#E5BE94" d="M88.088,35.683C75.477,33.849,64.31,41.438,60,52.695c-4.31-11.257-15.478-18.846-28.089-17.012
			C20.216,37.385,10.889,47.487,9.589,59.805C7.834,76.424,20.183,90.492,35.661,90.492c9.734,0,18.217-5.57,22.743-13.834
			c0.7-1.279,2.492-1.279,3.193,0c4.526,8.264,13.009,13.834,22.742,13.834c15.479,0,27.827-14.068,26.072-30.688
			C109.11,47.487,99.784,37.384,88.088,35.683z"/>
	</g>
	<g>
		<ellipse fill="#9A655B" cx="84.339" cy="62.951" rx="16.868" ry="17.705"/>
	</g>
	<g>
		<ellipse fill="#9A655B" cx="35.61" cy="62.951" rx="16.868" ry="17.705"/>
	</g>
	<g>
		<path fill="#9A655B" d="M93.71,15.738h9.371c7.233,0,13.119-6.178,13.119-13.77C116.2,0.88,117.039,0,118.074,0
			c1.036,0,1.874,0.88,1.874,1.967v23.607c0,9.763-7.566,17.705-16.868,17.705h-22.49c-10.334,0-18.742,8.826-18.742,19.672
			c0,1.087-0.838,1.967-1.874,1.967c-1.036,0-1.874-0.88-1.874-1.967v-9.836C58.1,32.505,74.075,15.738,93.71,15.738z"/>
	</g>
	<g>
		<path fill="#9A655B" d="M26.29,15.738h-9.371C9.686,15.738,3.8,9.559,3.8,1.967C3.8,0.88,2.961,0,1.926,0S0.051,0.88,0.051,1.967
			v23.607c0,9.763,7.566,17.705,16.868,17.705h22.49c10.334,0,18.742,8.826,18.742,19.672c0,1.087,0.838,1.967,1.874,1.967
			c1.036,0,1.874-0.88,1.874-1.967v-9.836C61.9,32.505,45.925,15.738,26.29,15.738z"/>
	</g>
	<g>
		<g>
			<ellipse fill="#FFCE04" cx="35.661" cy="62.951" rx="11.245" ry="11.803"/>
		</g>
		<g>
			<ellipse fill="#5D556B" cx="35.661" cy="62.951" rx="5.623" ry="5.902"/>
		</g>
		<g>
			<ellipse fill="#FFFFFF" cx="39.384" cy="59.043" rx="3.748" ry="3.934"/>
		</g>
	</g>
	<g>
		<g>
			<ellipse fill="#FFCE04" cx="84.339" cy="62.951" rx="11.245" ry="11.803"/>
		</g>
		<g>
			<ellipse fill="#5D556B" cx="84.339" cy="62.951" rx="5.623" ry="5.902"/>
		</g>
		<g>
			<ellipse fill="#FFFFFF" cx="88.062" cy="59.043" rx="3.748" ry="3.934"/>
		</g>
	</g>
	<g>
		<path fill="#E5BE94" d="M118.126,0c-1.036,0-1.874,0.88-1.874,1.967c0,7.592-5.886,13.77-13.119,13.77h-9.371
			c-15.703,0-29.039,10.737-33.761,25.574c-4.722-14.837-18.058-25.574-33.761-25.574h-9.371c-7.233,0-13.119-6.178-13.119-13.77
			C3.748,0.88,2.91,0,1.874,0S0,0.88,0,1.967V13.77c0,7.605,5.874,13.77,13.119,13.77h13.119c12.722,0,23.863,7.059,30.145,17.627
			c0.77,1.296,2.156,2.045,3.611,2.045h0.01c1.455,0,2.841-0.749,3.611-2.045C69.898,34.6,81.039,27.541,93.761,27.541h13.119
			c7.246,0,13.119-6.165,13.119-13.77V1.967C120,0.88,119.162,0,118.126,0z"/>
	</g>
	</symbol>
</svg>
