<?xml version="1.0" encoding="utf-8"?>
<!DOCTYPE svg PUBLIC "-//W3C//DTD SVG 1.1//EN" "http://www.w3.org/Graphics/SVG/1.1/DTD/svg11.dtd">
<svg version="1.1" id="Layer_1" xmlns="http://www.w3.org/2000/svg" xmlns:xlink="http://www.w3.org/1999/xlink" x="0px" y="0px"
	 width="28px" height="42px" viewBox="0 0 28 42" enable-background="new 0 0 28 42" xml:space="preserve">
<path fill="#C62026" d="M14,0C6.268,0,0,6.268,0,14c0,2.548,0.68,4.938,1.87,6.996C4.291,25.183,14,42,14,42s9.707-16.815,12.127-21
	C27.319,18.941,28,16.549,28,14C28,6.268,21.733,0,14,0z M14,18.2c-3.092,0-5.6-2.508-5.6-5.6S10.908,7,14,7s5.6,2.508,5.6,5.6
	S17.092,18.2,14,18.2z"/>
</svg>
