<?xml version="1.0" encoding="utf-8"?><svg xmlns="http://www.w3.org/2000/svg" xmlns:xlink="http://www.w3.org/1999/xlink"><symbol viewBox="0 0 30 30" id="arrow"><path d="M8.196 30c-.462 0-.877-.169-1.2-.488a1.638 1.638 0 0 1 0-2.349l12.41-12.171L6.996 2.82c-.32-.313-.496-.73-.496-1.175S6.676.783 6.996.47C7.3.171 7.738 0 8.196 0c.458 0 .896.171 1.2.47l13.608 13.347a1.64 1.64 0 0 1 0 2.35L9.396 29.513a1.68 1.68 0 0 1-1.2.487z"/></symbol><symbol viewBox="0 0 30 30" id="email"><path d="M15 0C6.729 0 0 6.729 0 15c0 8.27 6.729 15 15 15 8.27 0 15-6.73 15-15 0-8.271-6.728-15-15-15zM7.683 9h14.635c.659 0 .777.319.257.709L16.092 14.6c-.294.222-.699.32-1.092.302-.394.018-.799-.08-1.093-.302L7.423 9.709c-.518-.39-.4-.709.26-.709zM24 19.857c0 .629-.54 1.143-1.2 1.143H7.2c-.66 0-1.2-.514-1.2-1.143v-8.056c0-.628.43-.832.956-.452l7.086 5.123c.265.189.612.282.958.278.346.004.693-.088.958-.278l7.085-5.123c.527-.379.957-.176.957.453v8.055z"/></symbol><symbol viewBox="0 0 30 30" id="facebook"><path d="M15 0C6.729 0 0 6.729 0 15c0 8.27 6.729 15 15 15 8.27 0 15-6.73 15-15 0-8.271-6.728-15-15-15zm3.73 15.528h-2.44v8.698h-3.616v-8.698h-1.719v-3.074h1.719v-1.988c0-1.424.677-3.649 3.649-3.649l2.68.01V9.81h-1.945c-.317 0-.767.158-.767.837v1.807h2.755l-.316 3.074z"/></symbol><symbol viewBox="0 0 30 30" id="instagram"><path d="M15 17.824a2.828 2.828 0 0 0 2.824-2.823c0-.627-.483-2.825-2.824-2.825s-2.825 2.197-2.824 2.825A2.828 2.828 0 0 0 15 17.824zm6.574-6.576V8.447l-.37.001-2.461.008.009 2.802z"/><path d="M21.588 13.121h-2.316c.217.535.339 1.267.339 1.88 0 2.544-2.069 4.615-4.614 4.615s-4.615-2.071-4.615-4.615c0-.613.123-1.344.34-1.88H8.378v6.852c0 .893.726 1.617 1.618 1.617h9.975a1.62 1.62 0 0 0 1.618-1.617h-.002l.001-6.852z"/><path d="M15 0C6.715 0 0 6.716 0 15s6.716 15 15 15 15-6.716 15-15S23.284 0 15 0zm8.439 20.178a3.266 3.266 0 0 1-3.262 3.262H9.822a3.266 3.266 0 0 1-3.262-3.262V9.822A3.266 3.266 0 0 1 9.822 6.56h10.355a3.266 3.266 0 0 1 3.263 3.262l-.001 10.356z"/></symbol><symbol viewBox="0 0 30 30" id="ok"><path d="M15.014 12.432a2.568 2.568 0 0 0 2.568-2.591 2.572 2.572 0 0 0-2.581-2.58 2.577 2.577 0 0 0-2.588 2.611 2.574 2.574 0 0 0 2.601 2.56z"/><path d="M15 0C6.716 0 0 6.716 0 15s6.716 15 15 15 15-6.716 15-15S23.284 0 15 0zm.022 4.562c2.922.008 5.267 2.398 5.252 5.352-.015 2.886-2.398 5.225-5.315 5.215-2.887-.01-5.255-2.403-5.238-5.295a5.291 5.291 0 0 1 5.301-5.272zm5.917 12.642c-.646.663-1.424 1.143-2.287 1.478-.816.316-1.711.476-2.597.582.134.145.197.217.281.3 1.202 1.208 2.41 2.41 3.607 3.622.408.413.493.925.269 1.405-.245.525-.796.87-1.335.833-.342-.024-.609-.193-.845-.432-.907-.913-1.832-1.809-2.72-2.739-.259-.271-.383-.219-.612.016-.912.94-1.84 1.864-2.773 2.784-.419.413-.917.488-1.403.252-.517-.25-.845-.777-.82-1.308.018-.358.194-.632.44-.877 1.19-1.187 2.376-2.378 3.563-3.569.079-.079.152-.163.266-.285-1.618-.169-3.078-.568-4.327-1.544-.156-.122-.316-.239-.457-.376-.547-.525-.602-1.127-.17-1.746.37-.53.992-.672 1.638-.367.125.059.244.133.358.211 2.328 1.6 5.527 1.644 7.864.071.231-.177.479-.322.766-.396.557-.144 1.078.062 1.377.55.343.558.339 1.102-.083 1.535z"/></symbol><symbol viewBox="0 0 30 30" id="phone"><path d="M29.327 23.729l-4.633-4.644c-.923-.921-2.451-.893-3.406.064l-2.334 2.339-.461-.257c-1.474-.819-3.491-1.941-5.614-4.07-2.129-2.134-3.25-4.159-4.069-5.637a26.793 26.793 0 0 0-.251-.451l1.567-1.568.77-.773c.956-.959.983-2.49.062-3.414L6.325.674c-.921-.923-2.45-.895-3.406.064L1.614 2.054l.035.036A7.597 7.597 0 0 0 .573 3.992a7.874 7.874 0 0 0-.478 1.929C-.517 11.004 1.8 15.65 8.09 21.954c8.694 8.713 15.701 8.055 16.003 8.023a7.844 7.844 0 0 0 1.93-.486 7.518 7.518 0 0 0 1.891-1.074l.029.025 1.323-1.298c.954-.958.982-2.49.061-3.415z"/></symbol><symbol viewBox="0 0 30 30" id="point"><path d="M15 0C9.477 0 5 4.477 5 10c0 1.82.486 3.527 1.336 4.997C8.065 17.988 15 30 15 30s6.933-12.011 8.662-15A9.954 9.954 0 0 0 25 10c0-5.523-4.477-10-10-10zm0 13a4 4 0 1 1 0-8 4 4 0 0 1 0 8z"/></symbol><symbol viewBox="0 0 30 30" id="search"><path d="M29.544 27.327l-6.615-6.643a1.496 1.496 0 0 0-.69-.376 12.496 12.496 0 0 0 2.707-7.778C24.946 5.61 19.362 0 12.471 0 5.584 0 0 5.61 0 12.528c0 6.921 5.584 12.528 12.471 12.528 2.991 0 5.732-1.059 7.881-2.82.072.24.182.47.372.661l6.615 6.645c.61.612 1.597.612 2.205 0a1.573 1.573 0 0 0 0-2.215zm-17.165-4.826c-5.592 0-10.128-4.533-10.128-10.126S6.787 2.25 12.379 2.25c5.594 0 10.13 4.533 10.13 10.126-.002 5.594-4.538 10.125-10.13 10.125z"/></symbol><symbol viewBox="0 0 30 30" id="twitter"><path d="M15 0C6.716 0 0 6.716 0 15s6.716 15 15 15 15-6.716 15-15S23.284 0 15 0zm7.399 12.636c.007.154.01.308.01.464 0 4.738-3.607 10.202-10.201 10.202a10.14 10.14 0 0 1-5.496-1.611 7.192 7.192 0 0 0 5.308-1.485 3.589 3.589 0 0 1-3.349-2.49 3.568 3.568 0 0 0 1.619-.062 3.587 3.587 0 0 1-2.876-3.515v-.045c.483.269 1.036.43 1.624.449a3.585 3.585 0 0 1-1.109-4.787 10.18 10.18 0 0 0 7.39 3.747 3.586 3.586 0 0 1 6.11-3.27 7.19 7.19 0 0 0 2.277-.87 3.589 3.589 0 0 1-1.577 1.983 7.143 7.143 0 0 0 2.059-.564 7.316 7.316 0 0 1-1.789 1.854z"/></symbol><symbol viewBox="0 0 30 30" id="vk"><path d="M15 0C6.716 0 0 6.716 0 15s6.716 15 15 15 15-6.716 15-15S23.284 0 15 0zm8.594 21.579l-2.63.037s-.565.112-1.309-.399c-.984-.675-1.912-2.431-2.635-2.202-.733.233-.71 1.812-.71 1.812s.005.337-.162.517c-.182.196-.537.235-.537.235h-1.177s-2.598.156-4.885-2.225c-2.495-2.598-4.698-7.752-4.698-7.752s-.128-.339.01-.502c.155-.184.578-.195.578-.195l2.814-.018s.265.044.455.184c.156.115.244.33.244.33s.455 1.15 1.057 2.191c1.176 2.032 1.723 2.476 2.123 2.258.582-.317.407-2.872.407-2.872s.011-.927-.293-1.34c-.235-.32-.678-.413-.874-.44-.158-.021.102-.389.439-.554.506-.248 1.401-.262 2.458-.251.823.008 1.06.06 1.382.137.97.234.641 1.139.641 3.309 0 .695-.125 1.673.376 1.997.215.139.743.021 2.062-2.219.625-1.061 1.094-2.309 1.094-2.309s.102-.223.262-.318c.163-.097.382-.067.382-.067l2.962-.018s.89-.106 1.034.295c.151.422-.333 1.406-1.543 3.019-1.987 2.648-2.208 2.4-.558 3.931 1.576 1.463 1.902 2.174 1.956 2.263.651 1.081-.725 1.166-.725 1.166z"/></symbol></svg>